<svg width="1200" height="780" viewBox="0 0 1200 780" fill="none" xmlns="http://www.w3.org/2000/svg">
  <rect width="1200" height="780" rx="32" fill="#FFF8ED"/>
  <rect x="28" y="28" width="1144" height="724" rx="28" fill="#F8EFD9" stroke="#E8D4B4"/>

  <rect x="72" y="72" width="470" height="636" rx="28" fill="#18362E"/>
  <text x="112" y="134" fill="#8CD6CA" font-family="Georgia, serif" font-size="22">OpenHamster</text>
  <text x="112" y="188" fill="#F8FFFE" font-family="Georgia, serif" font-size="56">Always running in the background</text>
  <text x="112" y="236" fill="#D7ECE8" font-family="Georgia, serif" font-size="24">Cute on the surface. Serious about audit, governance, and paper trading.</text>

  <rect x="112" y="286" width="170" height="42" rx="21" fill="#D6F0EB"/>
  <text x="140" y="314" fill="#115E59" font-family="Georgia, serif" font-size="20">audit trail</text>
  <rect x="298" y="286" width="192" height="42" rx="21" fill="#FFE3D2"/>
  <text x="330" y="314" fill="#9A3412" font-family="Georgia, serif" font-size="20">paper first</text>

  <rect x="112" y="372" width="386" height="116" rx="22" fill="#21453D"/>
  <text x="140" y="412" fill="#8CD6CA" font-family="Georgia, serif" font-size="18">Loop</text>
  <text x="140" y="450" fill="#F8FFFE" font-family="Georgia, serif" font-size="32">Universe -> proposal -> governance</text>
  <text x="140" y="480" fill="#D7ECE8" font-family="Georgia, serif" font-size="20">A small hamster wheel, but every lap is reviewable.</text>

  <rect x="112" y="518" width="386" height="126" rx="22" fill="#FFF8ED"/>
  <text x="140" y="560" fill="#115E59" font-family="Georgia, serif" font-size="18">Brand idea</text>
  <text x="140" y="602" fill="#15211C" font-family="Georgia, serif" font-size="40">OpenHamster</text>
  <text x="140" y="632" fill="#53625A" font-family="Georgia, serif" font-size="20">the repo keeps researching like a hamster on a wheel</text>

  <rect x="608" y="88" width="512" height="512" rx="32" fill="#FFF6E8" stroke="#E7D0AF"/>

  <rect x="728" y="148" width="58" height="58" rx="16" fill="#D68D6D"/>
  <rect x="942" y="148" width="58" height="58" rx="16" fill="#D68D6D"/>
  <rect x="744" y="164" width="26" height="26" rx="8" fill="#F7C8D0"/>
  <rect x="958" y="164" width="26" height="26" rx="8" fill="#F7C8D0"/>

  <rect x="664" y="202" width="400" height="300" rx="120" fill="#E7AE86"/>
  <rect x="720" y="244" width="288" height="208" rx="92" fill="#F8E6D0"/>

  <rect x="778" y="300" width="28" height="28" rx="8" fill="#2A211B"/>
  <rect x="922" y="300" width="28" height="28" rx="8" fill="#2A211B"/>
  <rect x="844" y="346" width="40" height="32" rx="12" fill="#EA97A4"/>
  <rect x="828" y="390" width="72" height="10" rx="5" fill="#8A5D3C"/>

  <rect x="698" y="472" width="76" height="42" rx="14" fill="#8A5D3C"/>
  <rect x="954" y="472" width="76" height="42" rx="14" fill="#8A5D3C"/>

  <circle cx="864" cy="372" r="196" stroke="#C98A53" stroke-width="18" stroke-dasharray="18 18"/>
  <circle cx="864" cy="372" r="222" stroke="#E7D0AF" stroke-width="14"/>
  <rect x="1082" y="344" width="18" height="112" rx="9" fill="#B37A48"/>
  <rect x="1094" y="330" width="18" height="18" rx="6" fill="#B37A48"/>

  <rect x="654" y="626" width="420" height="62" rx="18" fill="#FFFFFF" stroke="#E7D0AF"/>
  <text x="696" y="665" fill="#0F766E" font-family="Georgia, serif" font-size="28">emoji-inspired pixel hamster mascot</text>
</svg>
