<svg width="640" height="640" viewBox="0 0 640 640" fill="none" xmlns="http://www.w3.org/2000/svg">
  <rect x="208" y="88" width="72" height="72" rx="20" fill="#D68D6D"/>
  <rect x="360" y="88" width="72" height="72" rx="20" fill="#D68D6D"/>
  <rect x="228" y="108" width="32" height="32" rx="10" fill="#F7C8D0"/>
  <rect x="380" y="108" width="32" height="32" rx="10" fill="#F7C8D0"/>

  <rect x="128" y="152" width="384" height="288" rx="120" fill="#E7AE86"/>
  <rect x="182" y="194" width="276" height="202" rx="92" fill="#F8E6D0"/>

  <rect x="238" y="248" width="28" height="28" rx="8" fill="#2A211B"/>
  <rect x="374" y="248" width="28" height="28" rx="8" fill="#2A211B"/>
  <rect x="300" y="292" width="40" height="32" rx="12" fill="#EA97A4"/>
  <rect x="284" y="338" width="72" height="10" rx="5" fill="#8A5D3C"/>

  <rect x="166" y="404" width="76" height="42" rx="14" fill="#8A5D3C"/>
  <rect x="398" y="404" width="76" height="42" rx="14" fill="#8A5D3C"/>
  <rect x="104" y="260" width="34" height="88" rx="16" fill="#E7AE86"/>
  <rect x="502" y="260" width="34" height="88" rx="16" fill="#E7AE86"/>
</svg>
